# xmcd CD database file
#
# Track frame offsets:
#	150
#	16937
#	30527
#	51805
#	65378
#	75691
#	97816
#	112067
#	118310
#	131722
#	148619
#	165583
#	181219
#	205733
#
# Disc length: 2931 seconds
#
# Revision: 0
# Processed by: cddbd v1.5.1PL0 Copyright (c) Steve Scherf et al.
# Submitted via: CDex 1.51
#
DISCID=bb0b710e
DTITLE=Robin Henkel - Acoustic Blues
DYEAR=2003
DGENRE=Blues
TTITLE0=Preachin' Blues
TTITLE1=Stones in My Passway
TTITLE2=Hellhound On My Trail
TTITLE3=Drop Down Mama
TTITLE4=Dos Cabezas
TTITLE5=Write Me a Few of Your Lines
TTITLE6=Dust My Broom
TTITLE7=Busker's Bounce
TTITLE8=Solitude
TTITLE9=Highway 61 Blues
TTITLE10=61 Highway
TTITLE11=Kansas City Blues
TTITLE12=Sweet July
TTITLE13=Mortero Road
EXTD=YEAR: 2003
EXTT0=
EXTT1=
EXTT2=
EXTT3=
EXTT4=
EXTT5=
EXTT6=
EXTT7=
EXTT8=
EXTT9=
EXTT10=
EXTT11=
EXTT12=
EXTT13=
PLAYORDER=
